<mxfile host="app.diagrams.net" modified="2023-11-22T09:59:13.412Z" agent="Mozilla/5.0 (Macintosh; Intel Mac OS X 10_15_7) AppleWebKit/537.36 (KHTML, like Gecko) Chrome/119.0.0.0 Safari/537.36" etag="Nsv-IDGrLFLJlFe-6ypc" version="21.3.7" type="github" pages="3">
  <diagram name="Requirements" id="ko_dqjG6y3X7jD0QXsYj">
    <mxGraphModel dx="1434" dy="738" grid="1" gridSize="10" guides="1" tooltips="1" connect="1" arrows="1" fold="1" page="1" pageScale="1" pageWidth="827" pageHeight="1169" math="0" shadow="0">
      <root>
        <mxCell id="0" />
        <mxCell id="1" parent="0" />
        <mxCell id="C994iGuoO-94H4k_FdDV-1" value="" style="rounded=0;whiteSpace=wrap;html=1;dashed=1;fillColor=none;" vertex="1" parent="1">
          <mxGeometry x="100" y="260" width="560" height="480" as="geometry" />
        </mxCell>
        <mxCell id="wZpOrlDpsTzWn8cMbFMg-15" value="" style="rounded=0;whiteSpace=wrap;html=1;dashed=1;fillColor=none;" vertex="1" parent="1">
          <mxGeometry x="380" y="280" width="260" height="430" as="geometry" />
        </mxCell>
        <mxCell id="dR0pPeRyYSRoEiQ4zv5r-2" value="General&lt;br&gt;Description" style="shape=note;whiteSpace=wrap;html=1;backgroundOutline=1;darkOpacity=0.05;" vertex="1" parent="1">
          <mxGeometry x="130" y="320" width="80" height="90" as="geometry" />
        </mxCell>
        <mxCell id="dR0pPeRyYSRoEiQ4zv5r-3" value="User Story 1" style="shape=note;whiteSpace=wrap;html=1;backgroundOutline=1;darkOpacity=0.05;" vertex="1" parent="1">
          <mxGeometry x="400" y="320" width="80" height="150" as="geometry" />
        </mxCell>
        <mxCell id="dR0pPeRyYSRoEiQ4zv5r-4" value="User Story 2" style="shape=note;whiteSpace=wrap;html=1;backgroundOutline=1;darkOpacity=0.05;" vertex="1" parent="1">
          <mxGeometry x="400" y="510" width="80" height="150" as="geometry" />
        </mxCell>
        <mxCell id="wZpOrlDpsTzWn8cMbFMg-1" value="Domain Description" style="shape=note;whiteSpace=wrap;html=1;backgroundOutline=1;darkOpacity=0.05;" vertex="1" parent="1">
          <mxGeometry x="240" y="320" width="80" height="90" as="geometry" />
        </mxCell>
        <mxCell id="wZpOrlDpsTzWn8cMbFMg-2" value="CQ 1.1" style="shape=note;whiteSpace=wrap;html=1;backgroundOutline=1;darkOpacity=0.05;" vertex="1" parent="1">
          <mxGeometry x="500" y="320" width="110" height="50" as="geometry" />
        </mxCell>
        <mxCell id="wZpOrlDpsTzWn8cMbFMg-3" value="CQ 1.2" style="shape=note;whiteSpace=wrap;html=1;backgroundOutline=1;darkOpacity=0.05;" vertex="1" parent="1">
          <mxGeometry x="500" y="380" width="110" height="50" as="geometry" />
        </mxCell>
        <mxCell id="wZpOrlDpsTzWn8cMbFMg-5" value="&lt;font style=&quot;font-size: 36px;&quot;&gt;...&lt;/font&gt;" style="text;html=1;align=center;verticalAlign=middle;resizable=0;points=[];autosize=1;strokeColor=none;fillColor=none;" vertex="1" parent="1">
          <mxGeometry x="530" y="410" width="50" height="60" as="geometry" />
        </mxCell>
        <mxCell id="wZpOrlDpsTzWn8cMbFMg-10" value="CQ 2.1" style="shape=note;whiteSpace=wrap;html=1;backgroundOutline=1;darkOpacity=0.05;" vertex="1" parent="1">
          <mxGeometry x="500" y="510" width="110" height="50" as="geometry" />
        </mxCell>
        <mxCell id="wZpOrlDpsTzWn8cMbFMg-11" value="CQ 2.2" style="shape=note;whiteSpace=wrap;html=1;backgroundOutline=1;darkOpacity=0.05;" vertex="1" parent="1">
          <mxGeometry x="500" y="570" width="110" height="50" as="geometry" />
        </mxCell>
        <mxCell id="wZpOrlDpsTzWn8cMbFMg-12" value="&lt;font style=&quot;font-size: 36px;&quot;&gt;...&lt;/font&gt;" style="text;html=1;align=center;verticalAlign=middle;resizable=0;points=[];autosize=1;strokeColor=none;fillColor=none;" vertex="1" parent="1">
          <mxGeometry x="530" y="600" width="50" height="60" as="geometry" />
        </mxCell>
        <mxCell id="wZpOrlDpsTzWn8cMbFMg-13" value="Ontology Scope" style="shape=note;whiteSpace=wrap;html=1;backgroundOutline=1;darkOpacity=0.05;" vertex="1" parent="1">
          <mxGeometry x="130" y="440" width="80" height="90" as="geometry" />
        </mxCell>
        <mxCell id="wZpOrlDpsTzWn8cMbFMg-14" value="Users" style="shape=note;whiteSpace=wrap;html=1;backgroundOutline=1;darkOpacity=0.05;" vertex="1" parent="1">
          <mxGeometry x="240" y="440" width="80" height="90" as="geometry" />
        </mxCell>
        <mxCell id="wZpOrlDpsTzWn8cMbFMg-16" value="&lt;font style=&quot;font-size: 36px;&quot;&gt;...&lt;/font&gt;" style="text;html=1;align=center;verticalAlign=middle;resizable=0;points=[];autosize=1;strokeColor=none;fillColor=none;" vertex="1" parent="1">
          <mxGeometry x="414" y="650" width="50" height="60" as="geometry" />
        </mxCell>
        <mxCell id="C994iGuoO-94H4k_FdDV-2" value="Ontology Requirements" style="text;html=1;strokeColor=none;fillColor=none;align=center;verticalAlign=middle;whiteSpace=wrap;rounded=0;" vertex="1" parent="1">
          <mxGeometry x="150" y="680" width="60" height="30" as="geometry" />
        </mxCell>
      </root>
    </mxGraphModel>
  </diagram>
  <diagram name="Ontology" id="fTAXvr9bBFszcWvD81mH">
    <mxGraphModel dx="1434" dy="738" grid="1" gridSize="10" guides="1" tooltips="1" connect="1" arrows="1" fold="1" page="1" pageScale="1" pageWidth="827" pageHeight="1169" math="0" shadow="0">
      <root>
        <mxCell id="kqTv1T57_9Nnb-ffsGUs-0" />
        <mxCell id="kqTv1T57_9Nnb-ffsGUs-1" parent="kqTv1T57_9Nnb-ffsGUs-0" />
        <mxCell id="kqTv1T57_9Nnb-ffsGUs-16" value="" style="rounded=0;whiteSpace=wrap;html=1;dashed=1;fillColor=none;" vertex="1" parent="kqTv1T57_9Nnb-ffsGUs-1">
          <mxGeometry x="100" y="300" width="460" height="170" as="geometry" />
        </mxCell>
        <mxCell id="1zGfyAVUWdJe3MWPKb_9-2" value="" style="rounded=0;whiteSpace=wrap;html=1;fillColor=none;" vertex="1" parent="kqTv1T57_9Nnb-ffsGUs-1">
          <mxGeometry x="345" y="320" width="190" height="105" as="geometry" />
        </mxCell>
        <mxCell id="kqTv1T57_9Nnb-ffsGUs-3" value="Formalisation&lt;br&gt;of classes&lt;br&gt;and props" style="shape=note;whiteSpace=wrap;html=1;backgroundOutline=1;darkOpacity=0.05;" vertex="1" parent="kqTv1T57_9Nnb-ffsGUs-1">
          <mxGeometry x="130" y="320" width="80" height="90" as="geometry" />
        </mxCell>
        <mxCell id="kqTv1T57_9Nnb-ffsGUs-6" value="Annotations" style="shape=note;whiteSpace=wrap;html=1;backgroundOutline=1;darkOpacity=0.05;" vertex="1" parent="kqTv1T57_9Nnb-ffsGUs-1">
          <mxGeometry x="240" y="320" width="80" height="90" as="geometry" />
        </mxCell>
        <mxCell id="kqTv1T57_9Nnb-ffsGUs-13" value="External&lt;br&gt;Ontology 1" style="shape=note;whiteSpace=wrap;html=1;backgroundOutline=1;darkOpacity=0.05;" vertex="1" parent="kqTv1T57_9Nnb-ffsGUs-1">
          <mxGeometry x="400" y="120" width="80" height="90" as="geometry" />
        </mxCell>
        <mxCell id="kqTv1T57_9Nnb-ffsGUs-17" value="OWL Ontology" style="text;html=1;strokeColor=none;fillColor=none;align=center;verticalAlign=middle;whiteSpace=wrap;rounded=0;" vertex="1" parent="kqTv1T57_9Nnb-ffsGUs-1">
          <mxGeometry x="190" y="430" width="60" height="30" as="geometry" />
        </mxCell>
        <mxCell id="RvR8E4f_2iXMYs8o86_F-0" value="External&lt;br&gt;Ontology 2" style="shape=note;whiteSpace=wrap;html=1;backgroundOutline=1;darkOpacity=0.05;" vertex="1" parent="kqTv1T57_9Nnb-ffsGUs-1">
          <mxGeometry x="520" y="120" width="80" height="90" as="geometry" />
        </mxCell>
        <mxCell id="H2fx7lUGSrjJXy6CxfNj-0" value="&lt;font style=&quot;font-size: 36px;&quot;&gt;...&lt;/font&gt;" style="text;html=1;align=center;verticalAlign=middle;resizable=0;points=[];autosize=1;strokeColor=none;fillColor=none;" vertex="1" parent="kqTv1T57_9Nnb-ffsGUs-1">
          <mxGeometry x="475" y="320" width="50" height="60" as="geometry" />
        </mxCell>
        <mxCell id="1zGfyAVUWdJe3MWPKb_9-0" value="" style="shape=note;whiteSpace=wrap;html=1;backgroundOutline=1;darkOpacity=0.05;dashed=1;size=19;" vertex="1" parent="kqTv1T57_9Nnb-ffsGUs-1">
          <mxGeometry x="365" y="335" width="40" height="40" as="geometry" />
        </mxCell>
        <mxCell id="1zGfyAVUWdJe3MWPKb_9-3" value="Imported/Linked Ontologies" style="text;html=1;strokeColor=none;fillColor=none;align=center;verticalAlign=middle;whiteSpace=wrap;rounded=0;" vertex="1" parent="kqTv1T57_9Nnb-ffsGUs-1">
          <mxGeometry x="405" y="385" width="60" height="30" as="geometry" />
        </mxCell>
        <mxCell id="1zGfyAVUWdJe3MWPKb_9-4" value="" style="shape=note;whiteSpace=wrap;html=1;backgroundOutline=1;darkOpacity=0.05;dashed=1;size=19;" vertex="1" parent="kqTv1T57_9Nnb-ffsGUs-1">
          <mxGeometry x="425" y="335" width="40" height="40" as="geometry" />
        </mxCell>
        <mxCell id="1zGfyAVUWdJe3MWPKb_9-5" value="" style="endArrow=classic;html=1;rounded=0;entryX=0.5;entryY=1;entryDx=0;entryDy=0;entryPerimeter=0;exitX=0;exitY=0;exitDx=21;exitDy=0;exitPerimeter=0;" edge="1" parent="kqTv1T57_9Nnb-ffsGUs-1" source="1zGfyAVUWdJe3MWPKb_9-0" target="kqTv1T57_9Nnb-ffsGUs-13">
          <mxGeometry width="50" height="50" relative="1" as="geometry">
            <mxPoint x="390" y="470" as="sourcePoint" />
            <mxPoint x="440" y="420" as="targetPoint" />
          </mxGeometry>
        </mxCell>
        <mxCell id="1zGfyAVUWdJe3MWPKb_9-6" value="" style="endArrow=classic;html=1;rounded=0;entryX=0.5;entryY=1;entryDx=0;entryDy=0;entryPerimeter=0;exitX=0.5;exitY=0;exitDx=0;exitDy=0;exitPerimeter=0;" edge="1" parent="kqTv1T57_9Nnb-ffsGUs-1" source="1zGfyAVUWdJe3MWPKb_9-4" target="RvR8E4f_2iXMYs8o86_F-0">
          <mxGeometry width="50" height="50" relative="1" as="geometry">
            <mxPoint x="630" y="510" as="sourcePoint" />
            <mxPoint x="680" y="460" as="targetPoint" />
          </mxGeometry>
        </mxCell>
        <mxCell id="1zGfyAVUWdJe3MWPKb_9-7" value="&lt;font style=&quot;font-size: 36px;&quot;&gt;...&lt;/font&gt;" style="text;html=1;align=center;verticalAlign=middle;resizable=0;points=[];autosize=1;strokeColor=none;fillColor=none;" vertex="1" parent="kqTv1T57_9Nnb-ffsGUs-1">
          <mxGeometry x="620" y="150" width="50" height="60" as="geometry" />
        </mxCell>
      </root>
    </mxGraphModel>
  </diagram>
  <diagram name="Direct-Zero-Shot" id="K2Drq02MRzKbQZ_3sAx_">
    <mxGraphModel dx="1434" dy="738" grid="1" gridSize="10" guides="1" tooltips="1" connect="1" arrows="1" fold="1" page="1" pageScale="1" pageWidth="827" pageHeight="1169" math="0" shadow="0">
      <root>
        <mxCell id="wzDXBrva2t4RyQ2eDLOE-0" />
        <mxCell id="wzDXBrva2t4RyQ2eDLOE-1" parent="wzDXBrva2t4RyQ2eDLOE-0" />
        <mxCell id="wzDXBrva2t4RyQ2eDLOE-2" value="LLM" style="rounded=1;whiteSpace=wrap;html=1;" vertex="1" parent="wzDXBrva2t4RyQ2eDLOE-1">
          <mxGeometry x="430" y="450" width="120" height="60" as="geometry" />
        </mxCell>
        <mxCell id="wzDXBrva2t4RyQ2eDLOE-3" value="Ontology&lt;br&gt;Requirements" style="shape=note;whiteSpace=wrap;html=1;backgroundOutline=1;darkOpacity=0.05;" vertex="1" parent="wzDXBrva2t4RyQ2eDLOE-1">
          <mxGeometry x="120" y="190" width="80" height="90" as="geometry" />
        </mxCell>
        <mxCell id="wzDXBrva2t4RyQ2eDLOE-4" value="User Story 1" style="shape=note;whiteSpace=wrap;html=1;backgroundOutline=1;darkOpacity=0.05;" vertex="1" parent="wzDXBrva2t4RyQ2eDLOE-1">
          <mxGeometry x="120" y="310" width="80" height="90" as="geometry" />
        </mxCell>
        <mxCell id="wzDXBrva2t4RyQ2eDLOE-5" value="User Story 1" style="shape=note;whiteSpace=wrap;html=1;backgroundOutline=1;darkOpacity=0.05;" vertex="1" parent="wzDXBrva2t4RyQ2eDLOE-1">
          <mxGeometry x="460" y="260" width="80" height="90" as="geometry" />
        </mxCell>
      </root>
    </mxGraphModel>
  </diagram>
</mxfile>
